<?xml version="1.0" encoding="UTF-8"?>
<svg xmlns="http://www.w3.org/2000/svg" xmlns:xlink="http://www.w3.org/1999/xlink" width="50pt" height="50pt" viewBox="0 0 50 50" version="1.1">
<g id="surface1">
<path style=" stroke:none;fill-rule:evenodd;fill:rgb(94.901961%,61.176471%,12.156863%);fill-opacity:1;" d="M 47.085938 19.886719 L 29.121094 33.863281 L 26.058594 36.242188 C 25.4375 36.734375 24.5625 36.734375 23.941406 36.242188 L 20.878906 33.863281 L 2.914062 19.886719 C 3.097656 19.476562 3.367188 19.105469 3.699219 18.800781 L 6.898438 15.851562 L 19.40625 4.308594 L 23.25 0.757812 C 24.238281 -0.15625 25.761719 -0.15625 26.75 0.757812 L 30.59375 4.308594 L 43.101562 15.851562 L 46.300781 18.800781 C 46.632812 19.105469 46.902344 19.476562 47.085938 19.886719 Z M 47.085938 19.886719 "/>
<path style=" stroke:none;fill-rule:evenodd;fill:rgb(92.54902%,94.117647%,94.509804%);fill-opacity:1;" d="M 43.101562 38.316406 L 43.101562 6.035156 C 43.101562 5.082031 42.332031 4.3125 41.378906 4.308594 L 8.621094 4.308594 C 7.667969 4.3125 6.898438 5.082031 6.898438 6.035156 L 6.898438 38.535156 Z M 43.101562 38.316406 "/>
<path style=" stroke:none;fill-rule:evenodd;fill:rgb(94.117647%,76.862745%,9.803922%);fill-opacity:1;" d="M 20.878906 33.863281 L 3.808594 48.921875 C 3.027344 48.171875 2.582031 47.128906 2.585938 46.042969 L 2.585938 21.335938 C 2.585938 20.835938 2.695312 20.339844 2.914062 19.886719 Z M 20.878906 33.863281 "/>
<path style=" stroke:none;fill-rule:evenodd;fill:rgb(95.294118%,83.529412%,35.686275%);fill-opacity:1;" d="M 46.191406 48.921875 C 45.472656 49.617188 44.515625 50.003906 43.515625 50 L 6.484375 50 C 5.484375 50.003906 4.527344 49.617188 3.808594 48.921875 L 20.878906 33.863281 L 23.941406 36.242188 C 24.5625 36.734375 25.4375 36.734375 26.058594 36.242188 L 29.121094 33.863281 Z M 46.191406 48.921875 "/>
<path style=" stroke:none;fill-rule:evenodd;fill:rgb(94.117647%,76.862745%,9.803922%);fill-opacity:1;" d="M 47.414062 21.335938 L 47.414062 46.042969 C 47.417969 47.128906 46.972656 48.171875 46.191406 48.921875 L 29.121094 33.863281 L 47.085938 19.886719 C 47.304688 20.339844 47.414062 20.835938 47.414062 21.335938 Z M 47.414062 21.335938 "/>
<path style=" stroke:none;fill-rule:nonzero;fill:rgb(90.196078%,29.803922%,23.529412%);fill-opacity:1;" d="M 25 8.621094 C 19.285156 8.621094 14.65625 13.253906 14.65625 18.964844 C 14.65625 24.679688 19.285156 29.308594 25 29.308594 C 27.214844 29.316406 29.375 28.609375 31.152344 27.285156 C 31.535156 27.003906 31.613281 26.464844 31.332031 26.082031 C 31.046875 25.699219 30.507812 25.617188 30.125 25.902344 C 28.644531 27.003906 26.84375 27.59375 25 27.585938 C 20.238281 27.585938 16.378906 23.726562 16.378906 18.964844 C 16.378906 14.203125 20.238281 10.34375 25 10.34375 C 29.761719 10.34375 33.621094 14.203125 33.621094 18.964844 L 33.621094 20.691406 C 33.621094 21.640625 32.847656 22.414062 31.898438 22.414062 C 30.945312 22.414062 30.171875 21.640625 30.171875 20.691406 L 30.171875 14.65625 C 30.171875 14.179688 29.785156 13.792969 29.308594 13.792969 C 28.835938 13.792969 28.449219 14.179688 28.449219 14.65625 L 28.449219 15.121094 C 26.886719 13.714844 24.628906 13.394531 22.738281 14.308594 C 20.847656 15.222656 19.695312 17.191406 19.828125 19.285156 C 19.957031 21.382812 21.339844 23.191406 23.332031 23.867188 C 25.320312 24.539062 27.519531 23.941406 28.898438 22.355469 C 29.652344 23.734375 31.246094 24.421875 32.769531 24.027344 C 34.289062 23.636719 35.351562 22.261719 35.34375 20.691406 L 35.34375 18.964844 C 35.339844 13.253906 30.710938 8.625 25 8.621094 Z M 25 22.414062 C 23.09375 22.414062 21.550781 20.871094 21.550781 18.964844 C 21.550781 17.0625 23.09375 15.515625 25 15.515625 C 26.90625 15.515625 28.449219 17.0625 28.449219 18.964844 C 28.449219 20.871094 26.90625 22.414062 25 22.414062 Z M 25 22.414062 "/>
</g>
</svg>
